# xmcd
#
# Track frame offsets:
#	150
#	14447
#	38336
#	68907
#	112761
#
# Disc length: 1713 seconds
#
# Revision: 1
# Processed by: cddbd v1.5.2PL0 Copyright (c) Steve Scherf et al.
# Submitted via: audiograbber 1.83.01
#
DISCID=3006af05
DTITLE=Cristal Snow - Pump It Up [CDM)
DYEAR=2007
DGENRE=Electronic
TTITLE0=Pump It Up (Radio Mix)
TTITLE1=Pump It Up (Extended)
TTITLE2=Pump It Up (Miika Kuisma and Mr A Dirty Dub)
TTITLE3=Pump It Up (Komytea Remix)
TTITLE4=Data Track
EXTD=TR.
EXTT0=
EXTT1=
EXTT2=
EXTT3=
EXTT4=
PLAYORDER=
